<svg xmlns="http://www.w3.org/2000/svg" xmlns:xlink="http://www.w3.org/1999/xlink" version="1.1" id="line2" x="0px" y="0px" viewBox="0 0 1034.4 397.1" style="enable-background:new 0 0 1034.4 397.1;" xml:space="preserve" width="1034.4"  height="397.1" ><script xmlns=""/>
<path style="fill:none;stroke:#CB9C58;stroke-width:2;stroke-linecap:round;" d="M1033.4,157.7c0,0-186.8-32-283.6-83.8  S635.8,11.7,626.2,6.8c-11.4-5.6-21.7-2.1-27.7-1.9c-10.3,0.2-16.8-7-27.5-2.3c-24.1,10.7-75.9,41.6-88.6,49S376.5,101,307.5,126.8  c-73.1,27.3-153,41.8-195.5,45.8C-1.1,183.4-38.3,285.5,50.1,329.1c47.3,23.3,90.7-4.4,253.9-5c163.2-0.6,94.5,65.5,36.7,56.1  c-8.2-1.3-10.6-3.6-3.1-5.5c26.3-6.5,76.4-4.3,163.9,11.3c45.2,8.1,96,10,96,10"/>
<path style="fill:none;stroke:#CB9C58;stroke-width:2;stroke-linecap:round;" d="M828.7,117.5c-11.7,0-45.2,5.3-82.8-8.9  c-18.2-6.9-17.3,7.1-36.1,2.9c-12.9-2.9-45.2-8.5-94.7-9.3c-22.9-0.4-45.3,12.9-58.9,15.2s8.3-18.4-7.5-15.5c-6.6,1.3-17.2,5-28.3,9  "/>
<script xmlns=""/></svg>