<?xml version="1.0" encoding="utf-8"?>
<!-- Generator: Adobe Illustrator 26.5.0, SVG Export Plug-In . SVG Version: 6.00 Build 0)  -->
<svg version="1.1" id="line1" xmlns="http://www.w3.org/2000/svg" xmlns:xlink="http://www.w3.org/1999/xlink" x="0px" y="0px"
	 viewBox="0 0 154.7 253" style="enable-background:new 0 0 154.7 253;" xml:space="preserve">
<g>
	<path style="fill:none;stroke:#CB9C58;stroke-width:2;stroke-linecap:round;" d="M86.5,19.8c1.8,0,4.1,0.1,6.2,0.2
		c23.1,0.8,26.1,0.5,29.2,13.1c3,12.6,28.3,150.3,31,166.1s3.5,37-73.4,37s-81.4-18-77.6-39.9S30.2,45.7,32.8,34.7
		s7.7-13.1,15.4-13.1"/>
	<path style="fill:none;stroke:#CB9C58;stroke-width:2;stroke-linecap:round;" d="M90.6,1c-1,10.7-16.1,9.8-19.2,9s0-3.4,7.7-2.6
		s7.7,12.6,7.1,14.3c-0.8,2.5-15.8,2.1-19.5,0.7"/>
	<path style="fill:none;stroke:#CB9C58;stroke-width:2;stroke-linecap:round;" d="M31.3,243c0.5,3.7,13.1,9,42.1,9
		s41.6-2.7,41.6-2.7"/>
	<path style="fill:none;stroke:#CB9C58;stroke-width:2;stroke-linecap:round;" d="M43.7,28c7,1.5,38,3.2,55.3,1.1"/>
</g>
</svg>
